<svg xmlns="http://www.w3.org/2000/svg" width="931.955" height="550.937" viewBox="0 0 931.955 550.937">
  <path id="Tracé_65" data-name="Tracé 65" d="M256.02-538.395q51.2,0,106.549,24.1t94.878,82.077q39.533,57.981,39.533,152.859v30.873q0,94.125-39.533,152.483T362.193-13.554q-55.722,24.1-106.173,24.1t-106.173-24.1Q94.125-37.65,54.592-96.007T15.06-248.49v-30.873q0-94.125,39.532-152.482T149.847-514.3Q205.569-538.395,256.02-538.395Zm0,417.915a310.882,310.882,0,0,0,104.667-18.449q51.957-18.448,85.465-51.58T479.661-264.3q0-40.662-33.509-73.418t-85.465-51.2A310.882,310.882,0,0,0,256.02-407.373a310.882,310.882,0,0,0-104.667,18.449q-51.957,18.448-85.465,51.2T32.379-264.3q0,40.662,33.508,73.417t85.465,51.581Q203.31-120.48,256.02-120.48Zm350.9-406.62H756.765v395.325h188.25V0H545.925V-131.775h189v-263.55H606.918Z" transform="translate(-14.06 539.395)" fill="none" stroke="#e77049" stroke-width="2"/>
</svg>
