<svg xmlns="http://www.w3.org/2000/svg" width="1543.535" height="1605.846" viewBox="0 0 1543.535 1605.846">
  <g id="carte-sapori" transform="matrix(0.966, 0.259, -0.259, 0.966, 337.045, -2.987)">
    <path id="Tracé_67" data-name="Tracé 67" d="M1976.707,602.424h0l-386.422-80.446a189.787,189.787,0,0,1-136.127-255.013h0c-7.522-.631-15.045-1.2-22.612-1.565h0A211.856,211.856,0,0,0,1473.7,478.32h0l-18.764,29.721h0l-113.8,21.133a46.115,46.115,0,0,0-36.961,52.355l56.16,391.031h0c-77.467,47.441-168.675,104.362-276.494,173.328h0c-10.654-25.677-31.852-75.206-56.877-125.452-40.7-81.729-74.488-132.214-102.6-153.151h0L1007.9,736.66h0l72.532,43.484.282.174a40.224,40.224,0,0,0,29.743,3.848l35.635-9.153a42.114,42.114,0,0,0,30.635-49.55l-15.219-70.9h0A30.765,30.765,0,0,0,1182.1,638.1a31.786,31.786,0,0,0,1.957-22.2l-7.544-28.96h0l-21.046,5.479h0l7.7,29.5a9.328,9.328,0,0,1,0,5.457,9.176,9.176,0,0,1-7.023,6.109,16.241,16.241,0,0,0-5.414,1.8,21.546,21.546,0,0,0-10.523,23.155l15.437,71.6a20.329,20.329,0,0,1-14.806,23.916l-35.635,9.175a18.589,18.589,0,0,1-13.545-1.7l-72.032-43.223h0c19.916-35.353,70.727-147.846,76.358-381.465h0q-11.176,5.718-22.09,11.828h0c-8.7,267.862-78.924,368.42-79.663,369.441l-.2.283-88.49,138.367h0L753.932,761.228h0q-2.87,11.089-5.392,22.286h0L893.842,875h0l-141,220.073h0c2.413,9.436,5.044,18.763,7.871,28.047h0l9.262-14.48h0c8.958,7.588,27.265,28.982,59.9,89.317,19.024,35.2,35.592,70.118,42.375,84.794h0l-27.308,17.872h0q6.066,9.023,12.436,17.828h0l24.329-15.915h0l50.007,102.384h0q20.72,20.329,43.136,38.831h0L900.06,1290.561h0q93.208-60.878,173.719-112.385h0l134.214,298.28h0l25.438,69.922h0l1.913,28.9h0q11,2.761,22.112,5.131h0l-1.283-19.416h0l73.119,30.787h0q31.635,3.24,64.074,3.414h0l-21.742-9.132h0l-19.568-191.852h0l198.353-135.214h0l163.8,218.377h0l-76.1,72.923h0q30.069-11.676,58.7-26.091h0l152.195-145.955h0l16.719,24.155h0q7.849-7.805,15.458-15.85h0l-343-495.524h0c76.336-44.9,131.844-76.1,173.589-99.47,119.321-66.966,121.6-68.248,170.784-147.324,6.349-10.2,13.437-21.59,21.742-34.679h0l85.9,17.894h0Q1983.751,614.752,1976.707,602.424ZM890.646,1270.689h0c-7.566-16.176-23.46-49.42-41.571-82.924-33.5-61.965-53.986-86.968-67.4-97.4h0L912.606,885.506h0c17.807,13.785,47.833,50.42,94.752,144.454,26.09,52.181,47.833,103.71,57.79,127.8h0Q984.2,1209.681,890.646,1270.689Zm435.059-692.507a24.329,24.329,0,0,1,19.459-27.678L1452.7,530.545h0l57.812,351.461h0c-38.157,22.547-81.229,48.354-130.018,78.1h0Zm-72.945,957.7-21.568-59.356h0l100.47-68.488h0l17.155,168.284h0l-96.078-40.44Zm583.884-175.828-106.536,102.188h0L1568.5,1246.751h0l128.757-87.773h0l139.388,201.049ZM1684.928,1141,1222.67,1456h0l-58.117-129.148h0l444.321-295.54h0L1684.82,1141Zm-88.338-127.561-441.082,293.3h0l-63.226-140.476h0c187.439-119.886,324.87-203.7,427.123-264.166h0l77.1,111.341Zm-65.857-143.215-57.66-350.047h0l16.48-26.091h0a211.31,211.31,0,0,0,96.274,49.181l22.807,4.74h0l43.093,252.469h0c-33.178,18.785-72.923,41.549-120.973,69.771Zm333.458-237.467c-46.224,74.336-46.224,74.336-163.066,139.845q-13.676,7.653-29.374,16.5h0L1631.4,552.743h0l250.143,52.072h0c-6.479,10.327-12.284,19.546-17.437,27.938Z" transform="translate(-740.88 -264.36)" fill="#404145"/>
  </g>
</svg>
