<svg xmlns="http://www.w3.org/2000/svg" width="50.162" height="47.281" viewBox="0 0 50.162 47.281">
  <path id="Tracé_64" data-name="Tracé 64" d="M37.91,27.98l-5.564-5.562L29.565,25.2l5.564,5.562A9.833,9.833,0,0,0,47.5,32.012l5.7,5.7L35.129,55.793l2.781,2.781L55.987,40.5,74.065,58.574l2.781-2.781L58.768,37.715l2.922-2.922a9.843,9.843,0,0,0,12.374-1.251l2.781-2.781A9.833,9.833,0,1,0,62.94,16.856l-2.78,2.782A9.833,9.833,0,0,0,58.91,32.012l-2.922,2.922-5.7-5.7a9.833,9.833,0,0,0-1.251-12.374l-5.562-5.564L40.69,14.074l5.562,5.564a5.9,5.9,0,0,1,1.135,6.687L37.91,16.847l-2.781,2.781,9.477,9.477a5.9,5.9,0,0,1-6.7-1.125Zm25.032-5.562,2.781-2.781a5.9,5.9,0,1,1,8.343,8.343l-2.782,2.78a5.9,5.9,0,1,1-8.343-8.343Z" transform="translate(-29.565 -11.293)" fill="#e77049"/>
</svg>
