<svg id="instagram-seeklogo.com" xmlns="http://www.w3.org/2000/svg" width="152" height="152" viewBox="0 0 152 152">
  <path id="Tracé_52" data-name="Tracé 52" d="M76,13.694c20.293,0,22.7.077,30.71.443,7.41.338,11.434,1.576,14.112,2.617a23.55,23.55,0,0,1,8.739,5.685,23.546,23.546,0,0,1,5.685,8.739c1.041,2.678,2.279,6.7,2.617,14.112.366,8.014.443,10.418.443,30.711s-.077,22.7-.443,30.71c-.338,7.41-1.576,11.434-2.617,14.112a25.166,25.166,0,0,1-14.423,14.423c-2.678,1.041-6.7,2.279-14.112,2.617-8.013.366-10.416.443-30.71.443s-22.7-.077-30.71-.443c-7.41-.338-11.434-1.576-14.112-2.617a23.544,23.544,0,0,1-8.739-5.685,23.546,23.546,0,0,1-5.685-8.739c-1.041-2.678-2.279-6.7-2.617-14.112C13.771,98.7,13.694,96.293,13.694,76s.077-22.7.443-30.71c.338-7.41,1.576-11.434,2.617-14.112a23.546,23.546,0,0,1,5.685-8.739,23.549,23.549,0,0,1,8.739-5.685c2.678-1.041,6.7-2.279,14.112-2.617,8.014-.366,10.418-.443,30.711-.443M76,0C55.359,0,52.772.087,44.665.457A55.785,55.785,0,0,0,26.217,3.99a37.253,37.253,0,0,0-13.461,8.766A37.253,37.253,0,0,0,3.99,26.217,55.785,55.785,0,0,0,.457,44.666C.087,52.772,0,55.36,0,76s.087,23.229.457,31.335A55.785,55.785,0,0,0,3.99,125.783a37.256,37.256,0,0,0,8.766,13.461,37.253,37.253,0,0,0,13.461,8.766,55.785,55.785,0,0,0,18.448,3.533c8.106.37,10.694.457,31.335.457s23.229-.087,31.335-.457a55.785,55.785,0,0,0,18.448-3.533,38.863,38.863,0,0,0,22.227-22.227,55.785,55.785,0,0,0,3.533-18.448c.37-8.106.457-10.694.457-31.335s-.087-23.229-.457-31.335a55.785,55.785,0,0,0-3.533-18.448,37.253,37.253,0,0,0-8.766-13.461A37.253,37.253,0,0,0,125.783,3.99,55.785,55.785,0,0,0,107.334.457C99.228.087,96.64,0,76,0Zm0,36.973A39.027,39.027,0,1,0,115.027,76,39.027,39.027,0,0,0,76,36.973Zm0,64.361A25.333,25.333,0,1,1,101.333,76,25.334,25.334,0,0,1,76,101.334Zm49.689-65.9a9.12,9.12,0,1,1-9.12-9.12A9.12,9.12,0,0,1,125.689,35.431Z" fill="#dedede"/>
</svg>
