<svg xmlns="http://www.w3.org/2000/svg" width="2077.521" height="488.023" viewBox="0 0 2077.521 488.023">
  <path id="Tracé_66" data-name="Tracé 66" d="M147.8-313.4h6.21q1.242,0,3.312.207t3.312.414a11.842,11.842,0,0,1,2.691.828A7.191,7.191,0,0,1,165.6-310.5a2.386,2.386,0,0,1,.828,1.656q0,4.14-4.554,2.9-2.9-.828-1.242-2.9-.414,0-2.277-.207t-2.691-.207h-2.277a25.11,25.11,0,0,1-3.1-.207,21.963,21.963,0,0,0-2.484-.207q-17.8,0-44.3,2.484v.414q0,1.242-1.242,21.528Q98.118-242.6,86.319-155.664T73.278-57.546q-1.242,7.866-2.9,23.6l-.828,11.592q-.414,11.592,2.9,17.8T84.456,6.21q28.566,1.242,44.3,3.726H130l.414.207.414.207.414.414.207.207a.843.843,0,0,0,.621.207q.828,0,.828,1.656-.414,2.07-1.656,2.07h-.828a36.837,36.837,0,0,1-7.038.828Q96.462,17.8,80.316,9.108,60.858,7.866,48.438,7.866q-36.846,0-45.54,2.07A1.866,1.866,0,0,1,.414,8.28,1.866,1.866,0,0,1,2.07,5.8q3.312-.414,20.7-.828t25.668-.414q12.006,0,26.082.828a17.522,17.522,0,0,1-6-7.245,37.481,37.481,0,0,1-3.1-9.108,66.074,66.074,0,0,1-.828-11.8q0-7.452.414-11.592T66.447-47.2q1.035-8.694,1.035-11.178,3.726-33.948,15.111-117.162t14.7-126.27v-5.382q-37.26,3.312-55.89,8.28a2.386,2.386,0,0,1-1.656-.828,1.605,1.605,0,0,1-.414-1.863,2.618,2.618,0,0,1,1.242-1.449q14.49-3.312,63.342-8.28Q129.168-313.4,147.8-313.4ZM101.016,10.35h0Zm11.592,1.242a6.811,6.811,0,0,0-2.07-.414ZM558.486-45.126q-7.038-14.076-32.292-24.84Q448.776-57.96,384.606-29.394q-41.4,19.044-58.788,38.916a51.365,51.365,0,0,0-8.487,13.455,30.608,30.608,0,0,0-2.07,15.939,22.121,22.121,0,0,0,7.659,14.49q19.458,17.388,76.176,5.8Q452.5,48.438,502.182,19.872,532.4,2.9,547.308-13.248q15.318-16.56,12.42-28.98A5.692,5.692,0,0,0,558.486-45.126ZM486.864-241.362a2.693,2.693,0,0,1,2.277,2.691,4.72,4.72,0,0,1-1.449,3.933,2.767,2.767,0,0,1-3.726.414,108.313,108.313,0,0,0-12.42-4.14q-42.228-10.35-95.22,2.9a254.689,254.689,0,0,0-47.817,17.388Q306.36-207.414,291.456-192.1q-20.286,19.872-10.764,36.018,4.554,7.452,16.56,14.49,15.318,8.28,45.954,16.974,22.356,6.21,75.762,18.216T499.7-86.112q19.872,6.624,31.05,12.42,48.852-7.452,77-4.14h3.312a3.072,3.072,0,0,1,2.07,3.105q0,2.277-2.07,2.277v-.828a65.426,65.426,0,0,0-13.248-1.656q-21.528-1.242-61.686,3.726,17.8,9.522,25.254,19.872A22.929,22.929,0,0,1,564.9-39.951a24.761,24.761,0,0,1-2.277,11.385,59.809,59.809,0,0,1-5.589,9.729,60.665,60.665,0,0,1-6.417,7.659q-15.732,16.56-45.954,33.534a366.257,366.257,0,0,1-51.336,23.6q-45.54,16.974-79.9,19.872-51.75,2.9-59.2-22.356l-.828-2.9-.414-3.726V33.534a39.337,39.337,0,0,1,8.9-23.391A113.905,113.905,0,0,1,343.206-9.108Q400.752-50.094,522.054-72.45q-24.84-10.764-77.418-22.356-9.936-2.07-25.668-5.175t-27.324-5.589q-11.592-2.484-25.047-5.589t-26.082-6.624q-12.627-3.519-23.8-7.245-26.5-9.936-36.018-19.458-15.318-15.318-8.28-33.12t30.636-34.362q21.942-14.9,51.336-25.461a256.78,256.78,0,0,1,64.17-13.662q34.776-3.1,64.584,8.487ZM635.076-84.456A52.2,52.2,0,0,0,647.082-95.22v-.414a1.651,1.651,0,0,1,2.484-.207,2,2,0,0,1,.828,2.277q-4.14,11.178-4.14,18.63a12.784,12.784,0,0,0,1.656,5.589q1.242,1.863,4.14,1.449Q658.674-69.138,668.2-77q2.07-2.07,2.9,1.242l-.414,2.07Q659.5-65,652.464-64.584q-4.554,1.242-7.038-2.07a12.739,12.739,0,0,1-2.484-7.866v-3.726a33.61,33.61,0,0,1,.414-4.14,26.472,26.472,0,0,1,.828-4.14A125.8,125.8,0,0,1,618.1-67.068,38.312,38.312,0,0,1,612.72-65h-1.242q-4.14,0-4.14-2.9v-1.242q0-7.866,10.764-16.974a15.078,15.078,0,0,1,8.9-3.519q4.761-.207,8.073,4.761Zm-6.624,1.242q-6.624,0-13.248,11.178h.828q2.9-1.656,8.073-4.761t6-3.519l-.414-.414v-.414l-.414-.828Zm100.6,71.622q-21.114,0-21.114-12.834,0-16.974,21.114-31.05,17.388-11.178,46.368-17.388a52.672,52.672,0,0,0-16.56-4.968,74.751,74.751,0,0,0-18.423-.207,125.837,125.837,0,0,0-18.009,3.312q-8.694,2.277-16.56,5.175a138.252,138.252,0,0,0-32.706,19.458,43.1,43.1,0,0,0,1.242,11.178q0,55.476-9.729,102.465t-31.671,74.313q-7.038,9.108-13.248,13.248a17.807,17.807,0,0,1-9.936,3.312q-12.42,0-14.076-25.254-2.07-32.706,12.42-77.832,22.77-69.966,61.272-103.5-.414-3.726-.621-8.073t-.621-8.487q-.414-4.14-.828-6.624a2.18,2.18,0,0,1,.828-1.863,1.483,1.483,0,0,1,1.656-.207,2.708,2.708,0,0,1,1.242,1.242,129.754,129.754,0,0,1,2.484,20.286q33.948-26.5,70.38-29.394,28.98-2.07,43.884,9.936,31.05-2.484,36.432-2.484H833.8q2.07,0,2.07,2.484t-2.07,2.484a45.122,45.122,0,0,0-9.522-.828q-20.7,0-27.738.828l-5.382.828a33.631,33.631,0,0,1,6.624,11.592v2.484a2.4,2.4,0,0,1,.414,1.656q2.07,15.732-18.63,28.98Q754.308-11.592,729.054-11.592ZM712.494-24.84q0,8.28,16.146,8.28,23.6-.414,46.368-16.974,17.8-14.076,14.076-26.082-1.656-5.8-8.28-10.764-41.4,6.624-60.03,26.91Q712.494-34.362,712.494-24.84ZM658.26,58.788A483.077,483.077,0,0,0,668.2-37.674V-45.54q-37.674,32.292-57.96,98.532a270.41,270.41,0,0,0-9.522,38.5q-6.624,40.158,2.484,55.062a6.487,6.487,0,0,0,5.8,3.312q2.9,0,7.038-2.484Q643.77,127.1,658.26,58.788ZM913.284-127.1a13.762,13.762,0,0,0-.828,3.312,14.713,14.713,0,0,1-1.242,4.14l-.207.207-.207.207a34.88,34.88,0,0,0,4.968,5.8l.414.828q5.8,5.382,5.8,16.974a107.388,107.388,0,0,1-1.242,16.353q-1.242,8.073-3.933,18.837t-3.519,14.49q-2.484,16.56.414,21.528l1.242,1.242.828.828h1.242q4.968,0,11.592-6.624Q946.818-46.368,962.136-77a2.386,2.386,0,0,1,1.656-.828,1.746,1.746,0,0,1,1.449,1.035,3.712,3.712,0,0,1,.621,1.863q-5.382,9.522-19.044,29.808-12.834,17.8-21.114,23.184a17.475,17.475,0,0,1-9.522,2.9,5.506,5.506,0,0,1-3.312-1.242,3.176,3.176,0,0,0-.828-1.449l-.828-1.035q-3.726-6.21-1.242-24.012.828-4.968,2.9-15.111t3.312-18.63a76.673,76.673,0,0,0,.828-15.525q-.414-10.35-4.968-14.076a29.272,29.272,0,0,1-4.14-4.14,58.171,58.171,0,0,1-20.493,21.321,76.992,76.992,0,0,1-30.015,10.971,31.785,31.785,0,0,1-1.035,21.735q-4.347,10.557-13.041,13.869-7.038,2.484-11.178-3.519a23.827,23.827,0,0,1-3.933-14.49q.207-8.487,4.347-12.627.828-1.242,2.484-.207t.414,2.277a46.052,46.052,0,0,0-2.07,7.866,27.57,27.57,0,0,0,0,9.522q.828,4.968,4.14,6.624,8.28,2.07,13.041-8.9T852.84-80.73l-.207-.414-.207-.414H851.6a29,29,0,0,1-9.108-.621q-4.554-1.035-3.312-4.761,1.242-3.312,5.8-3.933a10.064,10.064,0,0,1,7.452,1.449,21.767,21.767,0,0,1,3.312,4.14,55.463,55.463,0,0,0,29.6-9.936,62.259,62.259,0,0,0,20.079-22.77,11.907,11.907,0,0,1-1.449-8.073q.621-4.761,4.761-6a2.5,2.5,0,0,1,2.484.621,5.092,5.092,0,0,1,1.656,2.277A6.811,6.811,0,0,1,913.284-127.1ZM967.1-73.692a37.748,37.748,0,0,1-.621,5.8,37.217,37.217,0,0,0-.621,5.382q0,5.382,1.863,7.866t7.245,1.656a18.945,18.945,0,0,0,6-1.035,55.72,55.72,0,0,0,5.382-2.07,38.552,38.552,0,0,0,5.589-3.312q3.312-2.277,4.554-3.1t4.968-3.519q3.726-2.691,4.14-3.1,1.656-1.242,3.519-2.9t2.9-2.691a11.682,11.682,0,0,1,2.484-1.863,5.62,5.62,0,0,1,1.863-.828,3.178,3.178,0,0,1,1.242.414,1.83,1.83,0,0,1-.414,2.9Q991.53-55.89,982.836-51.75q-8.28,4.14-15.732,1.449t-7.452-12.627q0-2.07.207-4.554a36.538,36.538,0,0,1,.828-5.175,8.051,8.051,0,0,1,1.863-3.933,2.36,2.36,0,0,1,2.484-.828,2.3,2.3,0,0,1,2.07,2.484Zm7.038-38.5q.828,1.242,0,3.933a19.807,19.807,0,0,1-2.484,5.175q-1.656,2.484-2.9,2.07-1.242-.828-.621-3.726a13.946,13.946,0,0,1,2.691-5.589Q972.9-113.022,974.142-112.194Zm283.59,80.73a46.13,46.13,0,0,0,9.522-8.694,92.2,92.2,0,0,0,6.831-8.9q2.277-3.519,7.245-12.213t6.21-10.764q-38.088,9.522-43.47,33.948-1.242,7.452,3.519,8.9T1257.732-31.464ZM1163.34-14.49q3.312-23.184,6.624-50.3t6.831-59.2q3.519-32.085,5.589-49.059Q1163.34-107.226,1161.27-47.2q-.828,23.6,2.07,33.948V-14.49Zm156.492-63.756q3.312,0,7.452.207t5.8.207q1.656,0,1.656,1.863t-2.07,1.863q-3.726,0-9.108-.207t-9.108-.414a70.632,70.632,0,0,0-9.108.207q-5.382.414-11.178,1.242-.828,1.242-4.14,7.038t-4.554,7.452q-1.242,1.656-4.14,6.417a65.971,65.971,0,0,1-4.761,7.038q-1.863,2.277-4.968,5.8a61.465,61.465,0,0,1-6,6l-5.8,4.968q-12.834,7.452-17.388-1.242-4.14-9.936,6.624-23.6,11.592-14.076,35.19-20.7a14.167,14.167,0,0,0,2.691-.414,12.659,12.659,0,0,0,2.691-.828q15.318-31.464,21.528-74.106,5.382-33.948,3.519-74.52t-11.8-69.138q-12.42-33.948-29.808-33.534-8.694,0-20.7,11.178a119.335,119.335,0,0,0-16.767,20.7,232.2,232.2,0,0,0-12.42,20.493q-3.933,7.659-12.213,25.461a546.32,546.32,0,0,0-21.528,53.82q-4.14,31.05-11.592,91.08t-10.35,84.042q-1.242,8.28-1.656,9.108a2.2,2.2,0,0,1-2.484,2.484,3.165,3.165,0,0,1-2.277-1.035,4.686,4.686,0,0,1-1.242-2.9q-.207-1.863-.414-3.519t-.414-3.726q-.207-2.07-.207-2.9a246.747,246.747,0,0,1-.414-25.254,532.436,532.436,0,0,1,26.5-145.314q1.656-12.42,4.554-37.674t4.347-36.225q1.449-10.971,4.14-28.98t6-34.569q0-.828,1.242-1.242a1.875,1.875,0,0,1,2.07.414,1.352,1.352,0,0,1,.414,1.656q-2.07,19.458-7.659,57.753t-8.073,58.167q19.872-53.82,39.744-85.284,13.248-21.528,27.324-30.222a36.3,36.3,0,0,1,13.248-4.347,20.044,20.044,0,0,1,11.178,1.863,45.648,45.648,0,0,1,9.315,6.21,35.7,35.7,0,0,1,7.659,9.522q3.312,5.8,5.589,10.35t4.347,9.936q14.076,43.884,12.627,96.669t-15.525,94.6a248.2,248.2,0,0,1-12.006,27.738A147.18,147.18,0,0,1,1319.832-78.246Zm144.486-190.026a93.343,93.343,0,0,0,1.863-11.385q.621-6,1.035-14.7t-2.07-13.041q-2.484-4.347-7.866-2.277-5.8,3.312-12.006,11.592-19.458,26.5-30.636,64.791t-20.286,90.459q-2.9,19.044-6.21,45.126Q1444.86-159.8,1464.318-268.272ZM1349.64-100.188q-2.07,0-5.8,7.452a96.47,96.47,0,0,0-4.968,12.42q7.452-7.452,10.35-14.49,1.656-3.312.828-4.968Zm110.952-213.624q7.866,0,9.936,10.35t-.621,26.91q-2.691,16.56-4.761,25.875t-4.968,18.423q-24.426,92.736-73.278,144.9a1.687,1.687,0,0,0-.414,1.242q-5.382,52.164-3.312,84.456,1.656,19.044,4.14,24.426a5.1,5.1,0,0,0,.828,2.277,19.369,19.369,0,0,0,1.656,2.484,4.886,4.886,0,0,1,1.035,2.277q.207,1.242-1.449,2.07a6.28,6.28,0,0,0-1.863.207q-.621.207-1.656-1.035a11.574,11.574,0,0,1-1.449-2.07q-.414-.828-1.035-2.484a6.8,6.8,0,0,0-1.035-2.07,12.444,12.444,0,0,0-.414-2.07q-2.9-8.694-3.726-24.012-1.656-29.808,3.726-81.144-20.7,19.458-36.018,24.426a16.767,16.767,0,0,1-7.038.828,8.243,8.243,0,0,1-5.382-2.07v-.828q-2.484-2.07-2.484-9.108,0-12.006,7.452-25.668,5.8-10.764,11.178-10.764a5.766,5.766,0,0,1,2.484.414l.828.828.414.414q6.624,6.21-.207,15.939T1339.29-74.52l-.414.207-.414.207q-.828,6.624,0,8.694,0,.828.414.828v.414h.828a14.506,14.506,0,0,0,4.554-.828q16.974-4.968,39.33-26.91,9.108-83.214,28.566-145.728,16.56-49.68,36.018-69.138Q1455.21-313.812,1460.592-313.812Zm385.02,268.686q-7.038-14.076-32.292-24.84Q1735.9-57.96,1671.732-29.394q-41.4,19.044-58.788,38.916a51.367,51.367,0,0,0-8.487,13.455,30.608,30.608,0,0,0-2.07,15.939,22.122,22.122,0,0,0,7.659,14.49q19.458,17.388,76.176,5.8,53.406-10.764,103.086-39.33,30.222-16.974,45.126-33.12,15.318-16.56,12.42-28.98A5.691,5.691,0,0,0,1845.612-45.126ZM1773.99-241.362a2.693,2.693,0,0,1,2.277,2.691,4.721,4.721,0,0,1-1.449,3.933,2.767,2.767,0,0,1-3.726.414,108.318,108.318,0,0,0-12.42-4.14q-42.228-10.35-95.22,2.9a254.689,254.689,0,0,0-47.817,17.388q-22.149,10.764-37.053,26.082-20.286,19.872-10.764,36.018,4.554,7.452,16.56,14.49,15.318,8.28,45.954,16.974,22.356,6.21,75.762,18.216t80.73,20.286q19.872,6.624,31.05,12.42,48.852-7.452,77-4.14h3.312a3.072,3.072,0,0,1,2.07,3.105q0,2.277-2.07,2.277v-.828a65.428,65.428,0,0,0-13.248-1.656q-21.528-1.242-61.686,3.726,17.8,9.522,25.254,19.872a22.929,22.929,0,0,1,3.519,11.385,24.76,24.76,0,0,1-2.277,11.385,59.814,59.814,0,0,1-5.589,9.729,60.66,60.66,0,0,1-6.417,7.659q-15.732,16.56-45.954,33.534a366.254,366.254,0,0,1-51.336,23.6q-45.54,16.974-79.9,19.872-51.75,2.9-59.2-22.356l-.828-2.9-.414-3.726V33.534a39.337,39.337,0,0,1,8.9-23.391,113.906,113.906,0,0,1,21.321-19.251q57.546-40.986,178.848-63.342-24.84-10.764-77.418-22.356-9.936-2.07-25.668-5.175t-27.324-5.589q-11.592-2.484-25.047-5.589t-26.082-6.624q-12.627-3.519-23.805-7.245-26.5-9.936-36.018-19.458-15.318-15.318-8.28-33.12t30.636-34.362q21.942-14.9,51.336-25.461a256.779,256.779,0,0,1,64.17-13.662q34.776-3.1,64.584,8.487Zm178.848,167.67a1.687,1.687,0,0,1,.414,1.242q.828,4.14,1.449,6.417a7,7,0,0,0,3.1,3.933q2.484,1.656,6.624.828h2.07a9.376,9.376,0,0,0,3.312-.621,23.338,23.338,0,0,0,3.726-1.863q2.07-1.242,2.9-1.656,1.242-.414,4.14-1.656l3.726-2.484q2.07-1.242,6-4.14a58.411,58.411,0,0,0,4.761-3.726,2.667,2.667,0,0,1,2.07,0,1.483,1.483,0,0,1,.828,1.449,2.574,2.574,0,0,1-.828,1.863q-9.108,6.21-11.178,7.452l-4.14,2.484q-14.076,5.8-14.9,5.8a5.66,5.66,0,0,0-1.242.207,5.662,5.662,0,0,1-1.242.207q-14.076,0-14.076-16.146V-78.66a34.231,34.231,0,0,1,.414-4.554q-3.312,2.9-10.764,9.936t-13.455,12.006a85.634,85.634,0,0,1-12.627,8.694q-9.108,5.382-14.49,2.484-6.21-2.9-6.21-11.178a38.926,38.926,0,0,1,3.1-14.076q3.1-7.866,7.245-4.968a3.99,3.99,0,0,1,1.656,2.07,4.951,4.951,0,0,1-.207,3.1q-.621,1.863-1.242,3.519T1902.33-68.1a9.222,9.222,0,0,0-.828,2.277,9.963,9.963,0,0,0-1.242,8.28q1.242,4.14,7.038,3.312a29.4,29.4,0,0,0,9.936-4.14q16.974-10.35,34.776-29.808,2.484-2.484,2.484,1.242-1.242,5.382-1.656,8.694Zm28.152,46.368q0,3.312,2.07,4.554h1.242a.843.843,0,0,0,.621-.207l.207-.207,1.242-.414a84,84,0,0,0,11.592-9.936q13.662-14.49,30.222-43.47-59.2-8.28-81.972-34.362-20.7-22.356-17.8-53.406a95.862,95.862,0,0,1,8.28-29.394,133.3,133.3,0,0,1,28.152-39.951,112.642,112.642,0,0,1,40.986-26.289q24.012-8.28,41.4-1.242a37.641,37.641,0,0,1,21.942,17.181q7.452,12.627,7.659,29.394a179.273,179.273,0,0,1-2.484,32.5,190.318,190.318,0,0,1-8.073,31.05,381.575,381.575,0,0,1-31.05,70.794,197.594,197.594,0,0,0,23.184,1.656q2.07,0,5.175.207t4.347.207l8.28.414q1.656,0,1.656,1.449t-1.656,1.449h-17.388A206.975,206.975,0,0,1,2033.154-77q-7.452,13.248-12.006,20.7a201.294,201.294,0,0,1-12.213,17.388,145.542,145.542,0,0,1-15.111,16.974q-5.382,5.382-11.178,5.382-6.624-1.242-8.487-8.487a35.168,35.168,0,0,1-.621-14.7,57.694,57.694,0,0,1,3.726-13.248q6.624-16.146,19.044-23.6,2.9-2.9,5.8,0,2.07,2.07-.414,4.14-.414,0-1.656,1.242t-3.726,4.14a71.889,71.889,0,0,0-11.178,18.009A43.957,43.957,0,0,0,1980.99-27.324Zm-49.266-135.792q-2.07,18.216,4.14,32.706a56.082,56.082,0,0,0,18.63,23.6,120.5,120.5,0,0,0,26.289,14.7,171.1,171.1,0,0,0,30.429,8.9q6.624,1.242,19.458,2.9,31.05-54.648,40.572-101.844,7.452-43.056-6.21-61.686-8.28-11.592-24.633-15.111t-33.741,2.691a109.34,109.34,0,0,0-39.744,25.254A124.6,124.6,0,0,0,1939.59-192.1,91.086,91.086,0,0,0,1931.724-163.116Z" transform="translate(-0.345 333.601)" fill="#dedede"/>
</svg>
