<svg xmlns="http://www.w3.org/2000/svg" width="811.125" height="811.124" viewBox="0 0 811.125 811.124">
  <path id="Tracé_44" data-name="Tracé 44" d="M2012.543,853.793c-223.985,0-405.562,181.576-405.562,405.562s181.577,405.562,405.562,405.562,405.563-181.576,405.563-405.562S2236.529,853.793,2012.543,853.793Zm-111.714,625.953a88.242,88.242,0,1,1,88.242-88.242A88.242,88.242,0,0,1,1900.829,1479.746Zm287.655,2.333c-33.17-74.55-91.891-124.432-163.072-157.266q-14.854-6.852-30.4-12.734c-68.44-25.978-149.09-57.625-149.091-143.584a167.328,167.328,0,0,1,3.751-35.819,142.057,142.057,0,0,1,35-67.057,159.276,159.276,0,0,1,27.212-23.266,181.9,181.9,0,0,1,30.868-16.8,197.159,197.159,0,0,1,32.408-10.613,184.36,184.36,0,0,1,44.386-5,138.374,138.374,0,0,1,44.063,7.535c10.548,3.7,20.4,8.846,30.61,13.276,9.374,4.066,19.159,7.028,29.529,7.028a28.882,28.882,0,0,0,18.42-6.923c5.584-4.584,9.549-10.547,14.58-15.637,4.693-4.748,11.817-8.117,18.617-5.89,5.07,1.661,8.113,6.229,9.818,10.885,3.11,8.489,3.018,18.03,2.428,26.892-1.038,15.577-4.38,31.006-8.3,46.118-4.445,17.143-24.449,32.143-42.23,17.143a89.594,89.594,0,0,1-13.2-14.323c-6.135-8.034-11.495-16.588-17.06-24.99a233.241,233.241,0,0,0-19.144-25.827c-14.568-16.517-34.623-28.525-57.144-31.686-19.847-2.786-41.122,2.051-56.348,14.637-12.533,10.36-20.368,25.239-24.464,40.657-7.706,29-5.765,59.132,8.85,86.159,11.772,21.768,31.752,37.927,52.831,51.031,23.81,14.8,49.556,26.447,74.623,39.081,25.609,12.909,51.107,26.785,72.916,45.255,22.118,18.732,39.213,42.223,47.711,69.552C2219.215,1400.3,2210.789,1446.584,2188.484,1482.079Z" transform="translate(-1606.981 -853.793)" fill="#cfd0d1"/>
</svg>
