<svg xmlns="http://www.w3.org/2000/svg" width="73.05" height="93.609" viewBox="0 0 73.05 93.609">
  <g id="menu" transform="translate(0 -1.673)" opacity="0.999">
    <path id="Tracé_52" data-name="Tracé 52" d="M3.636,78.439a1.588,1.588,0,0,0,1.54,1.2h66.7a1.588,1.588,0,0,0,1.54-1.2L75,72.087a1.588,1.588,0,0,0-1.54-1.974H71.793A33.368,33.368,0,0,0,44.813,38.967c.019-.206.064-.408.064-.615a6.352,6.352,0,1,0-12.7,0c0,.206.044.408.064.615A33.368,33.368,0,0,0,5.257,70.113H3.588a1.588,1.588,0,0,0-1.54,1.974Zm67-1.974H6.416l-.794-3.176H71.427ZM35.349,38.352a3.176,3.176,0,0,1,6.352,0c0,.054-.014.106-.016.159-1.042-.1-2.093-.159-3.16-.159s-2.118.062-3.16.159C35.363,38.459,35.349,38.406,35.349,38.352Zm3.176,3.176A30.184,30.184,0,0,1,68.617,70.113H8.433A30.184,30.184,0,0,1,38.525,41.528Z" transform="translate(-2 15.641)" fill="#e77049"/>
    <path id="Tracé_53" data-name="Tracé 53" d="M10.275,53.5l2.749,1.588a23.867,23.867,0,0,1,26.59-11.161l.794-3.074A27.038,27.038,0,0,0,10.275,53.5Z" transform="translate(2.866 20.345)" fill="#e77049"/>
    <path id="Tracé_54" data-name="Tracé 54" d="M8.536,54l3.074.794a23.661,23.661,0,0,1,.981-2.978L9.648,50.625A27.061,27.061,0,0,0,8.536,54Z" transform="translate(1.843 26.593)" fill="#e77049"/>
    <path id="Tracé_56" data-name="Tracé 56" d="M38.1,28.357l-5.689-5.687-2.844,2.844L35.254,31.2a10.055,10.055,0,0,0,12.653,1.279l5.832,5.832L35.254,56.8,38.1,59.641,56.583,41.155,75.069,59.641,77.913,56.8,59.427,38.311l2.988-2.988a10.065,10.065,0,0,0,12.653-1.279L77.913,31.2A10.054,10.054,0,1,0,63.693,16.981l-2.843,2.845a10.055,10.055,0,0,0-1.279,12.653l-2.988,2.988-5.832-5.832a10.055,10.055,0,0,0-1.279-12.653l-5.687-5.689-2.844,2.844,5.687,5.689a6.033,6.033,0,0,1,1.16,6.838L38.1,16.972l-2.844,2.844,9.691,9.691a6.033,6.033,0,0,1-6.848-1.15Zm25.6-5.687,2.844-2.844a6.033,6.033,0,1,1,8.531,8.531L72.225,31.2a6.033,6.033,0,1,1-8.531-8.532Z" transform="translate(-19.185 -9.62)" fill="#e77049"/>
  </g>
</svg>
